<mxfile host="app.diagrams.net" modified="2024-05-23T18:30:18.685Z" agent="Mozilla/5.0 (Windows NT 10.0; Win64; x64) AppleWebKit/537.36 (KHTML, like Gecko) Chrome/124.0.0.0 Safari/537.36" etag="mXWCr6fYHsjufjVmLMiY" version="24.4.4" type="device">
  <diagram name="Pagina-1" id="ktEf_4U4YzZxbjqcMryV">
    <mxGraphModel dx="971" dy="530" grid="1" gridSize="10" guides="1" tooltips="1" connect="1" arrows="1" fold="1" page="1" pageScale="1" pageWidth="1169" pageHeight="827" math="0" shadow="0">
      <root>
        <mxCell id="0" />
        <mxCell id="1" parent="0" />
        <mxCell id="e0Iiw-6yV6Ac_-cYkG5h-1" value="&lt;b&gt;&lt;u&gt;ID_UTENTE&lt;/u&gt;&lt;/b&gt;" style="whiteSpace=wrap;html=1;align=center;" vertex="1" parent="1">
          <mxGeometry x="40" y="90" width="90" height="30" as="geometry" />
        </mxCell>
        <mxCell id="e0Iiw-6yV6Ac_-cYkG5h-2" value="&lt;b&gt;UTENTE&lt;/b&gt;" style="text;html=1;align=center;verticalAlign=middle;resizable=0;points=[];autosize=1;strokeColor=none;fillColor=none;" vertex="1" parent="1">
          <mxGeometry x="30" y="60" width="70" height="30" as="geometry" />
        </mxCell>
        <mxCell id="e0Iiw-6yV6Ac_-cYkG5h-3" value="&lt;b&gt;&lt;font style=&quot;font-size: 11px;&quot;&gt;COD_FISCALE&lt;/font&gt;&lt;/b&gt;" style="whiteSpace=wrap;html=1;align=center;" vertex="1" parent="1">
          <mxGeometry x="130" y="90" width="100" height="30" as="geometry" />
        </mxCell>
        <mxCell id="e0Iiw-6yV6Ac_-cYkG5h-5" value="&lt;b&gt;PASSWORD&lt;/b&gt;" style="whiteSpace=wrap;html=1;align=center;" vertex="1" parent="1">
          <mxGeometry x="230" y="90" width="90" height="30" as="geometry" />
        </mxCell>
        <mxCell id="e0Iiw-6yV6Ac_-cYkG5h-6" value="&lt;b&gt;EMAIL&lt;/b&gt;" style="whiteSpace=wrap;html=1;align=center;" vertex="1" parent="1">
          <mxGeometry x="320" y="90" width="60" height="30" as="geometry" />
        </mxCell>
        <mxCell id="e0Iiw-6yV6Ac_-cYkG5h-7" value="&lt;b style=&quot;font-size: 11px;&quot;&gt;N_TELEFONO&lt;/b&gt;" style="whiteSpace=wrap;html=1;align=center;" vertex="1" parent="1">
          <mxGeometry x="380" y="90" width="90" height="30" as="geometry" />
        </mxCell>
        <mxCell id="e0Iiw-6yV6Ac_-cYkG5h-8" value="&lt;b&gt;INDIRIZZO&lt;/b&gt;" style="whiteSpace=wrap;html=1;align=center;" vertex="1" parent="1">
          <mxGeometry x="470" y="90" width="80" height="30" as="geometry" />
        </mxCell>
        <mxCell id="e0Iiw-6yV6Ac_-cYkG5h-9" value="&lt;b style=&quot;font-size: 11px;&quot;&gt;LUOGO_NASCITA&lt;/b&gt;" style="whiteSpace=wrap;html=1;align=center;" vertex="1" parent="1">
          <mxGeometry x="550" y="90" width="110" height="30" as="geometry" />
        </mxCell>
        <mxCell id="e0Iiw-6yV6Ac_-cYkG5h-10" value="&lt;b style=&quot;font-size: 11px;&quot;&gt;DATA_NASCITA&lt;/b&gt;" style="whiteSpace=wrap;html=1;align=center;" vertex="1" parent="1">
          <mxGeometry x="660" y="90" width="100" height="30" as="geometry" />
        </mxCell>
        <mxCell id="e0Iiw-6yV6Ac_-cYkG5h-11" value="&lt;b style=&quot;font-size: 11px;&quot;&gt;STATO_ACCOUNT&lt;/b&gt;" style="whiteSpace=wrap;html=1;align=center;" vertex="1" parent="1">
          <mxGeometry x="760" y="90" width="110" height="30" as="geometry" />
        </mxCell>
        <mxCell id="e0Iiw-6yV6Ac_-cYkG5h-12" value="&lt;b style=&quot;font-size: 11px;&quot;&gt;NOTIFICHE_ATTIVE&lt;/b&gt;" style="whiteSpace=wrap;html=1;align=center;" vertex="1" parent="1">
          <mxGeometry x="870" y="90" width="120" height="30" as="geometry" />
        </mxCell>
        <mxCell id="e0Iiw-6yV6Ac_-cYkG5h-13" value="&lt;b style=&quot;font-size: 11px;&quot;&gt;NOME_BATT&lt;/b&gt;" style="whiteSpace=wrap;html=1;align=center;" vertex="1" parent="1">
          <mxGeometry x="990" y="90" width="80" height="30" as="geometry" />
        </mxCell>
        <mxCell id="e0Iiw-6yV6Ac_-cYkG5h-14" value="&lt;b style=&quot;font-size: 11px;&quot;&gt;COGNOME&lt;/b&gt;" style="whiteSpace=wrap;html=1;align=center;" vertex="1" parent="1">
          <mxGeometry x="1070" y="90" width="80" height="30" as="geometry" />
        </mxCell>
        <mxCell id="e0Iiw-6yV6Ac_-cYkG5h-15" value="&lt;b&gt;&lt;u&gt;ID_BIBLIOTECARIO&lt;/u&gt;&lt;/b&gt;" style="whiteSpace=wrap;html=1;align=center;" vertex="1" parent="1">
          <mxGeometry x="40" y="170" width="120" height="30" as="geometry" />
        </mxCell>
        <mxCell id="e0Iiw-6yV6Ac_-cYkG5h-16" value="&lt;b style=&quot;font-size: 11px;&quot;&gt;ID_BIBLIOTECA_LAVORO&lt;/b&gt;" style="whiteSpace=wrap;html=1;align=center;" vertex="1" parent="1">
          <mxGeometry x="160" y="170" width="150" height="30" as="geometry" />
        </mxCell>
        <mxCell id="e0Iiw-6yV6Ac_-cYkG5h-17" value="&lt;b&gt;BIBLIOTECARIO&lt;/b&gt;" style="text;html=1;align=center;verticalAlign=middle;resizable=0;points=[];autosize=1;strokeColor=none;fillColor=none;" vertex="1" parent="1">
          <mxGeometry x="30" y="140" width="120" height="30" as="geometry" />
        </mxCell>
        <mxCell id="e0Iiw-6yV6Ac_-cYkG5h-18" value="&lt;b style=&quot;font-size: 11px;&quot;&gt;&lt;u&gt;ID_BIBLIOTECA&lt;/u&gt;&lt;/b&gt;" style="whiteSpace=wrap;html=1;align=center;" vertex="1" parent="1">
          <mxGeometry x="40" y="250" width="100" height="30" as="geometry" />
        </mxCell>
        <mxCell id="e0Iiw-6yV6Ac_-cYkG5h-19" value="&lt;b&gt;&lt;font style=&quot;font-size: 12px;&quot;&gt;EMAIL&lt;/font&gt;&lt;/b&gt;" style="whiteSpace=wrap;html=1;align=center;" vertex="1" parent="1">
          <mxGeometry x="140" y="250" width="60" height="30" as="geometry" />
        </mxCell>
        <mxCell id="e0Iiw-6yV6Ac_-cYkG5h-22" value="&lt;b&gt;&lt;font style=&quot;font-size: 11px;&quot;&gt;N_TELEFONO&lt;/font&gt;&lt;/b&gt;" style="whiteSpace=wrap;html=1;align=center;" vertex="1" parent="1">
          <mxGeometry x="200" y="250" width="90" height="30" as="geometry" />
        </mxCell>
        <mxCell id="e0Iiw-6yV6Ac_-cYkG5h-23" value="&lt;b&gt;&lt;font style=&quot;font-size: 12px;&quot;&gt;INDIRIZZO&lt;/font&gt;&lt;/b&gt;" style="whiteSpace=wrap;html=1;align=center;" vertex="1" parent="1">
          <mxGeometry x="290" y="250" width="70" height="30" as="geometry" />
        </mxCell>
        <mxCell id="e0Iiw-6yV6Ac_-cYkG5h-24" value="&lt;b&gt;&lt;font style=&quot;font-size: 11px;&quot;&gt;INVENTARIO&lt;/font&gt;&lt;/b&gt;" style="whiteSpace=wrap;html=1;align=center;" vertex="1" parent="1">
          <mxGeometry x="360" y="250" width="80" height="30" as="geometry" />
        </mxCell>
        <mxCell id="e0Iiw-6yV6Ac_-cYkG5h-25" value="&lt;b&gt;BIBLIOTECA&lt;/b&gt;" style="text;html=1;align=center;verticalAlign=middle;resizable=0;points=[];autosize=1;strokeColor=none;fillColor=none;" vertex="1" parent="1">
          <mxGeometry x="30" y="220" width="100" height="30" as="geometry" />
        </mxCell>
        <mxCell id="e0Iiw-6yV6Ac_-cYkG5h-26" value="&lt;b&gt;EVENTO&lt;/b&gt;" style="text;html=1;align=center;verticalAlign=middle;resizable=0;points=[];autosize=1;strokeColor=none;fillColor=none;" vertex="1" parent="1">
          <mxGeometry x="30" y="300" width="70" height="30" as="geometry" />
        </mxCell>
        <mxCell id="e0Iiw-6yV6Ac_-cYkG5h-27" value="&lt;b&gt;&lt;u&gt;ID_EVENTO&lt;/u&gt;&lt;/b&gt;" style="whiteSpace=wrap;html=1;align=center;" vertex="1" parent="1">
          <mxGeometry x="40" y="330" width="80" height="30" as="geometry" />
        </mxCell>
        <mxCell id="e0Iiw-6yV6Ac_-cYkG5h-28" value="&lt;b&gt;&lt;font style=&quot;font-size: 12px;&quot;&gt;DATA&lt;/font&gt;&lt;/b&gt;" style="whiteSpace=wrap;html=1;align=center;" vertex="1" parent="1">
          <mxGeometry x="120" y="330" width="60" height="30" as="geometry" />
        </mxCell>
        <mxCell id="e0Iiw-6yV6Ac_-cYkG5h-29" value="&lt;b&gt;&lt;font style=&quot;font-size: 12px;&quot;&gt;LUOGO&lt;/font&gt;&lt;/b&gt;" style="whiteSpace=wrap;html=1;align=center;" vertex="1" parent="1">
          <mxGeometry x="180" y="330" width="60" height="30" as="geometry" />
        </mxCell>
        <mxCell id="e0Iiw-6yV6Ac_-cYkG5h-30" value="&lt;b&gt;&lt;font style=&quot;font-size: 11px;&quot;&gt;DESCRIZIONE&lt;/font&gt;&lt;/b&gt;" style="whiteSpace=wrap;html=1;align=center;" vertex="1" parent="1">
          <mxGeometry x="240" y="330" width="90" height="30" as="geometry" />
        </mxCell>
        <mxCell id="e0Iiw-6yV6Ac_-cYkG5h-31" value="&lt;b&gt;&lt;u&gt;ISBN&lt;/u&gt;&lt;/b&gt;" style="whiteSpace=wrap;html=1;align=center;" vertex="1" parent="1">
          <mxGeometry x="40" y="732" width="50" height="30" as="geometry" />
        </mxCell>
        <mxCell id="e0Iiw-6yV6Ac_-cYkG5h-32" value="&lt;b&gt;TITOLO&lt;/b&gt;" style="whiteSpace=wrap;html=1;align=center;" vertex="1" parent="1">
          <mxGeometry x="90" y="732" width="60" height="30" as="geometry" />
        </mxCell>
        <mxCell id="e0Iiw-6yV6Ac_-cYkG5h-33" value="&lt;b style=&quot;font-size: 11px;&quot;&gt;ANNO_PRIMA_PUBL&lt;/b&gt;" style="whiteSpace=wrap;html=1;align=center;" vertex="1" parent="1">
          <mxGeometry x="150" y="732" width="120" height="30" as="geometry" />
        </mxCell>
        <mxCell id="e0Iiw-6yV6Ac_-cYkG5h-34" value="&lt;b&gt;IMM_COPERTINA&lt;/b&gt;" style="whiteSpace=wrap;html=1;align=center;" vertex="1" parent="1">
          <mxGeometry x="270" y="732" width="110" height="30" as="geometry" />
        </mxCell>
        <mxCell id="e0Iiw-6yV6Ac_-cYkG5h-35" value="&lt;b&gt;AUTORE&lt;/b&gt;" style="whiteSpace=wrap;html=1;align=center;" vertex="1" parent="1">
          <mxGeometry x="380" y="732" width="70" height="30" as="geometry" />
        </mxCell>
        <mxCell id="e0Iiw-6yV6Ac_-cYkG5h-36" value="&lt;b&gt;GENERE&lt;/b&gt;" style="whiteSpace=wrap;html=1;align=center;" vertex="1" parent="1">
          <mxGeometry x="450" y="732" width="70" height="30" as="geometry" />
        </mxCell>
        <mxCell id="e0Iiw-6yV6Ac_-cYkG5h-183" style="edgeStyle=orthogonalEdgeStyle;rounded=0;orthogonalLoop=1;jettySize=auto;html=1;exitX=0.25;exitY=0;exitDx=0;exitDy=0;entryX=0.25;entryY=1;entryDx=0;entryDy=0;curved=1;" edge="1" parent="1" source="e0Iiw-6yV6Ac_-cYkG5h-38" target="e0Iiw-6yV6Ac_-cYkG5h-15">
          <mxGeometry relative="1" as="geometry">
            <Array as="points">
              <mxPoint x="565" y="700" />
              <mxPoint x="100" y="690" />
              <mxPoint y="700" />
              <mxPoint y="600" />
              <mxPoint x="10" y="600" />
              <mxPoint x="10" y="200" />
            </Array>
          </mxGeometry>
        </mxCell>
        <mxCell id="e0Iiw-6yV6Ac_-cYkG5h-38" value="&lt;b&gt;&lt;font style=&quot;font-size: 11px;&quot;&gt;ID_BIBLIOTECARIO_REGISTRA&lt;/font&gt;&lt;/b&gt;" style="whiteSpace=wrap;html=1;align=center;" vertex="1" parent="1">
          <mxGeometry x="520" y="732" width="180" height="30" as="geometry" />
        </mxCell>
        <mxCell id="e0Iiw-6yV6Ac_-cYkG5h-39" value="&lt;b&gt;LIBRO&lt;/b&gt;" style="text;html=1;align=center;verticalAlign=middle;resizable=0;points=[];autosize=1;strokeColor=none;fillColor=none;" vertex="1" parent="1">
          <mxGeometry x="40" y="702" width="60" height="30" as="geometry" />
        </mxCell>
        <mxCell id="e0Iiw-6yV6Ac_-cYkG5h-162" style="edgeStyle=orthogonalEdgeStyle;rounded=0;orthogonalLoop=1;jettySize=auto;html=1;exitX=0.75;exitY=0;exitDx=0;exitDy=0;entryX=0.75;entryY=1;entryDx=0;entryDy=0;curved=1;" edge="1" parent="1" source="e0Iiw-6yV6Ac_-cYkG5h-40" target="e0Iiw-6yV6Ac_-cYkG5h-31">
          <mxGeometry relative="1" as="geometry">
            <Array as="points">
              <mxPoint x="140" y="812" />
              <mxPoint x="140" y="782" />
              <mxPoint x="88" y="782" />
            </Array>
          </mxGeometry>
        </mxCell>
        <mxCell id="e0Iiw-6yV6Ac_-cYkG5h-40" value="&lt;b&gt;&lt;u&gt;ISBN_LIB&lt;/u&gt;&lt;/b&gt;" style="whiteSpace=wrap;html=1;align=center;" vertex="1" parent="1">
          <mxGeometry x="40" y="812" width="70" height="30" as="geometry" />
        </mxCell>
        <mxCell id="e0Iiw-6yV6Ac_-cYkG5h-41" value="&lt;b&gt;&lt;u&gt;&lt;font style=&quot;font-size: 11px;&quot;&gt;INVENTARIO&lt;/font&gt;&lt;/u&gt;&lt;/b&gt;" style="whiteSpace=wrap;html=1;align=center;" vertex="1" parent="1">
          <mxGeometry x="110" y="812" width="80" height="30" as="geometry" />
        </mxCell>
        <mxCell id="e0Iiw-6yV6Ac_-cYkG5h-42" value="&lt;b&gt;&lt;u&gt;COMUNE&lt;/u&gt;&lt;/b&gt;" style="whiteSpace=wrap;html=1;align=center;" vertex="1" parent="1">
          <mxGeometry x="190" y="812" width="70" height="30" as="geometry" />
        </mxCell>
        <mxCell id="e0Iiw-6yV6Ac_-cYkG5h-43" value="&lt;b&gt;EDITORE&lt;/b&gt;" style="whiteSpace=wrap;html=1;align=center;" vertex="1" parent="1">
          <mxGeometry x="260" y="812" width="70" height="30" as="geometry" />
        </mxCell>
        <mxCell id="e0Iiw-6yV6Ac_-cYkG5h-44" value="&lt;b&gt;&lt;font style=&quot;font-size: 11px;&quot;&gt;DIMENSIONE&lt;/font&gt;&lt;/b&gt;" style="whiteSpace=wrap;html=1;align=center;" vertex="1" parent="1">
          <mxGeometry x="330" y="812" width="80" height="30" as="geometry" />
        </mxCell>
        <mxCell id="e0Iiw-6yV6Ac_-cYkG5h-45" value="&lt;b&gt;&lt;font style=&quot;font-size: 11px;&quot;&gt;N_PAGINE&lt;/font&gt;&lt;/b&gt;" style="whiteSpace=wrap;html=1;align=center;" vertex="1" parent="1">
          <mxGeometry x="410" y="812" width="70" height="30" as="geometry" />
        </mxCell>
        <mxCell id="e0Iiw-6yV6Ac_-cYkG5h-46" value="&lt;b&gt;STATO&lt;/b&gt;" style="whiteSpace=wrap;html=1;align=center;" vertex="1" parent="1">
          <mxGeometry x="480" y="812" width="61" height="30" as="geometry" />
        </mxCell>
        <mxCell id="e0Iiw-6yV6Ac_-cYkG5h-47" value="&lt;b&gt;&lt;font style=&quot;font-size: 11px;&quot;&gt;LINGUE&lt;/font&gt;&lt;/b&gt;" style="whiteSpace=wrap;html=1;align=center;" vertex="1" parent="1">
          <mxGeometry x="541" y="812" width="59" height="30" as="geometry" />
        </mxCell>
        <mxCell id="e0Iiw-6yV6Ac_-cYkG5h-48" value="&lt;b&gt;&lt;font style=&quot;font-size: 11px;&quot;&gt;N_RISTAMPA&lt;/font&gt;&lt;/b&gt;" style="whiteSpace=wrap;html=1;align=center;" vertex="1" parent="1">
          <mxGeometry x="600" y="812" width="79" height="30" as="geometry" />
        </mxCell>
        <mxCell id="e0Iiw-6yV6Ac_-cYkG5h-184" style="edgeStyle=orthogonalEdgeStyle;rounded=0;orthogonalLoop=1;jettySize=auto;html=1;exitX=0.25;exitY=1;exitDx=0;exitDy=0;entryX=0;entryY=0.75;entryDx=0;entryDy=0;curved=1;" edge="1" parent="1" source="e0Iiw-6yV6Ac_-cYkG5h-50" target="e0Iiw-6yV6Ac_-cYkG5h-15">
          <mxGeometry relative="1" as="geometry">
            <Array as="points">
              <mxPoint x="719" y="862" />
              <mxPoint x="40" y="862" />
              <mxPoint x="40" y="860" />
              <mxPoint x="20" y="860" />
              <mxPoint x="-30" y="193" />
            </Array>
          </mxGeometry>
        </mxCell>
        <mxCell id="e0Iiw-6yV6Ac_-cYkG5h-50" value="&lt;b&gt;&lt;font style=&quot;font-size: 10px;&quot;&gt;ID_BIBLIOTECARIO_REGISTRA&lt;/font&gt;&lt;/b&gt;" style="whiteSpace=wrap;html=1;align=center;" vertex="1" parent="1">
          <mxGeometry x="679" y="812" width="159" height="30" as="geometry" />
        </mxCell>
        <mxCell id="e0Iiw-6yV6Ac_-cYkG5h-51" value="&lt;b style=&quot;&quot;&gt;&lt;font style=&quot;font-size: 10px;&quot;&gt;ID_BIBLIOTECA_OSPITANTE&lt;/font&gt;&lt;/b&gt;" style="whiteSpace=wrap;html=1;align=center;" vertex="1" parent="1">
          <mxGeometry x="838" y="812" width="150" height="30" as="geometry" />
        </mxCell>
        <mxCell id="e0Iiw-6yV6Ac_-cYkG5h-52" value="&lt;b style=&quot;&quot;&gt;&lt;font style=&quot;font-size: 10px;&quot;&gt;ID_BIBLIOTECA_PROPRIETARIA&lt;/font&gt;&lt;/b&gt;" style="whiteSpace=wrap;html=1;align=center;" vertex="1" parent="1">
          <mxGeometry x="988" y="812" width="172" height="30" as="geometry" />
        </mxCell>
        <mxCell id="e0Iiw-6yV6Ac_-cYkG5h-53" value="&lt;b&gt;COPIA LIBRO&lt;/b&gt;" style="text;html=1;align=center;verticalAlign=middle;resizable=0;points=[];autosize=1;strokeColor=none;fillColor=none;" vertex="1" parent="1">
          <mxGeometry x="40" y="782" width="100" height="30" as="geometry" />
        </mxCell>
        <mxCell id="e0Iiw-6yV6Ac_-cYkG5h-54" value="&lt;b&gt;&lt;u&gt;ISSN&lt;/u&gt;&lt;/b&gt;" style="whiteSpace=wrap;html=1;align=center;" vertex="1" parent="1">
          <mxGeometry x="41" y="410" width="50" height="30" as="geometry" />
        </mxCell>
        <mxCell id="e0Iiw-6yV6Ac_-cYkG5h-55" value="&lt;b&gt;GENERE&lt;/b&gt;" style="whiteSpace=wrap;html=1;align=center;" vertex="1" parent="1">
          <mxGeometry x="91" y="410" width="60" height="30" as="geometry" />
        </mxCell>
        <mxCell id="e0Iiw-6yV6Ac_-cYkG5h-56" value="&lt;b&gt;EDITORE&lt;/b&gt;" style="whiteSpace=wrap;html=1;align=center;" vertex="1" parent="1">
          <mxGeometry x="151" y="410" width="70" height="30" as="geometry" />
        </mxCell>
        <mxCell id="e0Iiw-6yV6Ac_-cYkG5h-57" value="&lt;b&gt;TITOLO&lt;/b&gt;" style="whiteSpace=wrap;html=1;align=center;" vertex="1" parent="1">
          <mxGeometry x="221" y="410" width="60" height="30" as="geometry" />
        </mxCell>
        <mxCell id="e0Iiw-6yV6Ac_-cYkG5h-60" value="&lt;b&gt;NUMERO&lt;/b&gt;" style="whiteSpace=wrap;html=1;align=center;" vertex="1" parent="1">
          <mxGeometry x="281" y="410" width="70" height="30" as="geometry" />
        </mxCell>
        <mxCell id="e0Iiw-6yV6Ac_-cYkG5h-61" value="&lt;b style=&quot;font-size: 11px;&quot;&gt;DATA_PUBL&lt;/b&gt;" style="whiteSpace=wrap;html=1;align=center;" vertex="1" parent="1">
          <mxGeometry x="351" y="410" width="80" height="30" as="geometry" />
        </mxCell>
        <mxCell id="e0Iiw-6yV6Ac_-cYkG5h-63" value="&lt;b&gt;IMM_COPERTINA&lt;/b&gt;" style="whiteSpace=wrap;html=1;align=center;" vertex="1" parent="1">
          <mxGeometry x="431" y="410" width="110" height="30" as="geometry" />
        </mxCell>
        <mxCell id="e0Iiw-6yV6Ac_-cYkG5h-65" value="&lt;b&gt;&lt;font style=&quot;font-size: 11px;&quot;&gt;ID_BIBLIOTECARIO_REGISTRA&lt;/font&gt;&lt;/b&gt;" style="whiteSpace=wrap;html=1;align=center;" vertex="1" parent="1">
          <mxGeometry x="541" y="410" width="180" height="30" as="geometry" />
        </mxCell>
        <mxCell id="e0Iiw-6yV6Ac_-cYkG5h-66" value="&lt;b&gt;GIORNALE&lt;/b&gt;" style="text;html=1;align=center;verticalAlign=middle;resizable=0;points=[];autosize=1;strokeColor=none;fillColor=none;" vertex="1" parent="1">
          <mxGeometry x="31" y="380" width="90" height="30" as="geometry" />
        </mxCell>
        <mxCell id="e0Iiw-6yV6Ac_-cYkG5h-164" style="edgeStyle=orthogonalEdgeStyle;rounded=0;orthogonalLoop=1;jettySize=auto;html=1;exitX=0.75;exitY=0;exitDx=0;exitDy=0;entryX=0.75;entryY=1;entryDx=0;entryDy=0;curved=1;" edge="1" parent="1" source="e0Iiw-6yV6Ac_-cYkG5h-67" target="e0Iiw-6yV6Ac_-cYkG5h-54">
          <mxGeometry relative="1" as="geometry">
            <Array as="points">
              <mxPoint x="160" y="490" />
              <mxPoint x="160" y="460" />
              <mxPoint x="79" y="460" />
            </Array>
          </mxGeometry>
        </mxCell>
        <mxCell id="e0Iiw-6yV6Ac_-cYkG5h-67" value="&lt;b&gt;&lt;u&gt;ISSN_GIOR&lt;/u&gt;&lt;/b&gt;" style="whiteSpace=wrap;html=1;align=center;" vertex="1" parent="1">
          <mxGeometry x="41" y="490" width="80" height="30" as="geometry" />
        </mxCell>
        <mxCell id="e0Iiw-6yV6Ac_-cYkG5h-68" value="&lt;b&gt;&lt;u&gt;&lt;font style=&quot;font-size: 11px;&quot;&gt;INVENTARIO&lt;/font&gt;&lt;/u&gt;&lt;/b&gt;" style="whiteSpace=wrap;html=1;align=center;" vertex="1" parent="1">
          <mxGeometry x="121" y="490" width="80" height="30" as="geometry" />
        </mxCell>
        <mxCell id="e0Iiw-6yV6Ac_-cYkG5h-69" value="&lt;b&gt;&lt;u&gt;COMUNE&lt;/u&gt;&lt;/b&gt;" style="whiteSpace=wrap;html=1;align=center;" vertex="1" parent="1">
          <mxGeometry x="201" y="490" width="70" height="30" as="geometry" />
        </mxCell>
        <mxCell id="e0Iiw-6yV6Ac_-cYkG5h-70" value="&lt;b&gt;COPIA GIORNALE&lt;/b&gt;" style="text;html=1;align=center;verticalAlign=middle;resizable=0;points=[];autosize=1;strokeColor=none;fillColor=none;" vertex="1" parent="1">
          <mxGeometry x="30" y="460" width="130" height="30" as="geometry" />
        </mxCell>
        <mxCell id="e0Iiw-6yV6Ac_-cYkG5h-71" value="&lt;b&gt;STATO&lt;/b&gt;" style="whiteSpace=wrap;html=1;align=center;" vertex="1" parent="1">
          <mxGeometry x="271" y="490" width="50" height="30" as="geometry" />
        </mxCell>
        <mxCell id="e0Iiw-6yV6Ac_-cYkG5h-73" value="&lt;b&gt;&lt;font style=&quot;font-size: 11px;&quot;&gt;ID_BIBLIOTECARIO_REGISTRA&lt;/font&gt;&lt;/b&gt;" style="whiteSpace=wrap;html=1;align=center;" vertex="1" parent="1">
          <mxGeometry x="321" y="490" width="179" height="30" as="geometry" />
        </mxCell>
        <mxCell id="e0Iiw-6yV6Ac_-cYkG5h-169" style="edgeStyle=orthogonalEdgeStyle;rounded=0;orthogonalLoop=1;jettySize=auto;html=1;exitX=0.75;exitY=0;exitDx=0;exitDy=0;entryX=0.5;entryY=1;entryDx=0;entryDy=0;curved=1;" edge="1" parent="1" source="e0Iiw-6yV6Ac_-cYkG5h-74" target="e0Iiw-6yV6Ac_-cYkG5h-18">
          <mxGeometry relative="1" as="geometry">
            <Array as="points">
              <mxPoint x="628" y="480" />
              <mxPoint x="770" y="480" />
              <mxPoint x="770" y="385" />
              <mxPoint x="350" y="385" />
              <mxPoint x="350" y="300" />
              <mxPoint x="90" y="300" />
            </Array>
          </mxGeometry>
        </mxCell>
        <mxCell id="e0Iiw-6yV6Ac_-cYkG5h-74" value="&lt;b style=&quot;&quot;&gt;&lt;font style=&quot;font-size: 11px;&quot;&gt;ID_BIBLIOTECA_OSPITANTE&lt;/font&gt;&lt;/b&gt;" style="whiteSpace=wrap;html=1;align=center;" vertex="1" parent="1">
          <mxGeometry x="500" y="490" width="170" height="30" as="geometry" />
        </mxCell>
        <mxCell id="e0Iiw-6yV6Ac_-cYkG5h-75" value="&lt;b style=&quot;&quot;&gt;&lt;font style=&quot;font-size: 11px;&quot;&gt;ID_BIBLIOTECA_PROPRIETARIA&lt;/font&gt;&lt;/b&gt;" style="whiteSpace=wrap;html=1;align=center;" vertex="1" parent="1">
          <mxGeometry x="670" y="490" width="190" height="30" as="geometry" />
        </mxCell>
        <mxCell id="e0Iiw-6yV6Ac_-cYkG5h-77" value="&lt;b&gt;&lt;u&gt;ID_MEDIA&lt;/u&gt;&lt;/b&gt;" style="whiteSpace=wrap;html=1;align=center;" vertex="1" parent="1">
          <mxGeometry x="40.5" y="570" width="70" height="30" as="geometry" />
        </mxCell>
        <mxCell id="e0Iiw-6yV6Ac_-cYkG5h-78" value="&lt;b&gt;GENERE&lt;/b&gt;" style="whiteSpace=wrap;html=1;align=center;" vertex="1" parent="1">
          <mxGeometry x="110.5" y="570" width="60" height="30" as="geometry" />
        </mxCell>
        <mxCell id="e0Iiw-6yV6Ac_-cYkG5h-79" value="&lt;b&gt;EDITORE&lt;/b&gt;" style="whiteSpace=wrap;html=1;align=center;" vertex="1" parent="1">
          <mxGeometry x="170.5" y="570" width="70" height="30" as="geometry" />
        </mxCell>
        <mxCell id="e0Iiw-6yV6Ac_-cYkG5h-80" value="&lt;b&gt;TITOLO&lt;/b&gt;" style="whiteSpace=wrap;html=1;align=center;" vertex="1" parent="1">
          <mxGeometry x="240.5" y="570" width="60" height="30" as="geometry" />
        </mxCell>
        <mxCell id="e0Iiw-6yV6Ac_-cYkG5h-81" value="&lt;b&gt;TIPO&lt;/b&gt;" style="whiteSpace=wrap;html=1;align=center;" vertex="1" parent="1">
          <mxGeometry x="300.5" y="570" width="40" height="30" as="geometry" />
        </mxCell>
        <mxCell id="e0Iiw-6yV6Ac_-cYkG5h-82" value="&lt;b&gt;IMM_COPERTINA&lt;/b&gt;" style="whiteSpace=wrap;html=1;align=center;" vertex="1" parent="1">
          <mxGeometry x="340.5" y="570" width="110" height="30" as="geometry" />
        </mxCell>
        <mxCell id="e0Iiw-6yV6Ac_-cYkG5h-171" style="edgeStyle=orthogonalEdgeStyle;rounded=0;orthogonalLoop=1;jettySize=auto;html=1;exitX=0.75;exitY=0;exitDx=0;exitDy=0;entryX=0.75;entryY=1;entryDx=0;entryDy=0;curved=1;" edge="1" parent="1" source="e0Iiw-6yV6Ac_-cYkG5h-83" target="e0Iiw-6yV6Ac_-cYkG5h-15">
          <mxGeometry relative="1" as="geometry">
            <Array as="points">
              <mxPoint x="586" y="550" />
              <mxPoint x="940" y="550" />
              <mxPoint x="940" y="220" />
              <mxPoint x="130" y="220" />
            </Array>
          </mxGeometry>
        </mxCell>
        <mxCell id="e0Iiw-6yV6Ac_-cYkG5h-83" value="&lt;b&gt;&lt;font style=&quot;font-size: 11px;&quot;&gt;ID_BIBLIOTECARIO_REGISTRA&lt;/font&gt;&lt;/b&gt;" style="whiteSpace=wrap;html=1;align=center;" vertex="1" parent="1">
          <mxGeometry x="450.5" y="570" width="180" height="30" as="geometry" />
        </mxCell>
        <mxCell id="e0Iiw-6yV6Ac_-cYkG5h-84" value="&lt;b&gt;MULTIMEDIA&lt;/b&gt;" style="text;html=1;align=center;verticalAlign=middle;resizable=0;points=[];autosize=1;strokeColor=none;fillColor=none;" vertex="1" parent="1">
          <mxGeometry x="30.5" y="540" width="100" height="30" as="geometry" />
        </mxCell>
        <mxCell id="e0Iiw-6yV6Ac_-cYkG5h-177" style="edgeStyle=orthogonalEdgeStyle;rounded=0;orthogonalLoop=1;jettySize=auto;html=1;exitX=0.5;exitY=0;exitDx=0;exitDy=0;entryX=0.75;entryY=1;entryDx=0;entryDy=0;curved=1;" edge="1" parent="1" source="e0Iiw-6yV6Ac_-cYkG5h-85" target="e0Iiw-6yV6Ac_-cYkG5h-77">
          <mxGeometry relative="1" as="geometry">
            <Array as="points">
              <mxPoint x="200" y="649" />
              <mxPoint x="200" y="610" />
              <mxPoint x="93" y="610" />
            </Array>
          </mxGeometry>
        </mxCell>
        <mxCell id="e0Iiw-6yV6Ac_-cYkG5h-85" value="&lt;b&gt;&lt;u&gt;ID_MULTIMEDIA&lt;/u&gt;&lt;/b&gt;" style="whiteSpace=wrap;html=1;align=center;" vertex="1" parent="1">
          <mxGeometry x="40.5" y="649" width="119.5" height="30" as="geometry" />
        </mxCell>
        <mxCell id="e0Iiw-6yV6Ac_-cYkG5h-86" value="&lt;b&gt;&lt;u&gt;&lt;font style=&quot;font-size: 11px;&quot;&gt;INVENTARIO&lt;/font&gt;&lt;/u&gt;&lt;/b&gt;" style="whiteSpace=wrap;html=1;align=center;" vertex="1" parent="1">
          <mxGeometry x="160" y="649" width="80" height="30" as="geometry" />
        </mxCell>
        <mxCell id="e0Iiw-6yV6Ac_-cYkG5h-87" value="&lt;b&gt;&lt;u&gt;COMUNE&lt;/u&gt;&lt;/b&gt;" style="whiteSpace=wrap;html=1;align=center;" vertex="1" parent="1">
          <mxGeometry x="240" y="649" width="70" height="30" as="geometry" />
        </mxCell>
        <mxCell id="e0Iiw-6yV6Ac_-cYkG5h-88" value="&lt;b&gt;STATO&lt;/b&gt;" style="whiteSpace=wrap;html=1;align=center;" vertex="1" parent="1">
          <mxGeometry x="310" y="649" width="50" height="30" as="geometry" />
        </mxCell>
        <mxCell id="e0Iiw-6yV6Ac_-cYkG5h-89" value="&lt;b&gt;&lt;font style=&quot;font-size: 11px;&quot;&gt;ID_BIBLIOTECARIO_REGISTRA&lt;/font&gt;&lt;/b&gt;" style="whiteSpace=wrap;html=1;align=center;" vertex="1" parent="1">
          <mxGeometry x="360.5" y="649" width="179" height="30" as="geometry" />
        </mxCell>
        <mxCell id="e0Iiw-6yV6Ac_-cYkG5h-90" value="&lt;b style=&quot;&quot;&gt;&lt;font style=&quot;font-size: 11px;&quot;&gt;ID_BIBLIOTECA_OSPITANTE&lt;/font&gt;&lt;/b&gt;" style="whiteSpace=wrap;html=1;align=center;" vertex="1" parent="1">
          <mxGeometry x="539.5" y="649" width="170" height="30" as="geometry" />
        </mxCell>
        <mxCell id="e0Iiw-6yV6Ac_-cYkG5h-91" value="&lt;b style=&quot;&quot;&gt;&lt;font style=&quot;font-size: 11px;&quot;&gt;ID_BIBLIOTECA_PROPRIETARIA&lt;/font&gt;&lt;/b&gt;" style="whiteSpace=wrap;html=1;align=center;" vertex="1" parent="1">
          <mxGeometry x="709.5" y="649" width="190" height="30" as="geometry" />
        </mxCell>
        <mxCell id="e0Iiw-6yV6Ac_-cYkG5h-92" value="&lt;b&gt;COPIA MULTIMEDIALE&lt;/b&gt;" style="text;html=1;align=center;verticalAlign=middle;resizable=0;points=[];autosize=1;strokeColor=none;fillColor=none;" vertex="1" parent="1">
          <mxGeometry x="30.5" y="619" width="150" height="30" as="geometry" />
        </mxCell>
        <mxCell id="e0Iiw-6yV6Ac_-cYkG5h-94" value="&lt;b&gt;&lt;u&gt;&lt;font style=&quot;font-size: 11px;&quot;&gt;ID_UTENTE _PARTECIPANTE&lt;/font&gt;&lt;/u&gt;&lt;/b&gt;" style="whiteSpace=wrap;html=1;align=center;" vertex="1" parent="1">
          <mxGeometry x="40" y="890" width="170" height="30" as="geometry" />
        </mxCell>
        <mxCell id="e0Iiw-6yV6Ac_-cYkG5h-95" value="&lt;b&gt;&lt;u&gt;&lt;font style=&quot;font-size: 11px;&quot;&gt;ID_EVENTO&lt;/font&gt;&lt;/u&gt;&lt;/b&gt;" style="whiteSpace=wrap;html=1;align=center;" vertex="1" parent="1">
          <mxGeometry x="210" y="890" width="90" height="30" as="geometry" />
        </mxCell>
        <mxCell id="e0Iiw-6yV6Ac_-cYkG5h-96" value="&lt;b&gt;UTENTE-PARTECIPA-EVENTO&lt;/b&gt;" style="text;html=1;align=center;verticalAlign=middle;resizable=0;points=[];autosize=1;strokeColor=none;fillColor=none;" vertex="1" parent="1">
          <mxGeometry x="30" y="860" width="200" height="30" as="geometry" />
        </mxCell>
        <mxCell id="e0Iiw-6yV6Ac_-cYkG5h-97" value="&lt;b&gt;UTENTE_WISHLIST_LIBRO&lt;/b&gt;" style="text;html=1;align=center;verticalAlign=middle;resizable=0;points=[];autosize=1;strokeColor=none;fillColor=none;" vertex="1" parent="1">
          <mxGeometry x="30" y="940" width="180" height="30" as="geometry" />
        </mxCell>
        <mxCell id="e0Iiw-6yV6Ac_-cYkG5h-98" value="&lt;b&gt;&lt;u&gt;&lt;font style=&quot;font-size: 11px;&quot;&gt;ID_UTENTE&amp;nbsp;&lt;/font&gt;&lt;/u&gt;&lt;/b&gt;" style="whiteSpace=wrap;html=1;align=center;" vertex="1" parent="1">
          <mxGeometry x="40" y="970" width="80" height="30" as="geometry" />
        </mxCell>
        <mxCell id="e0Iiw-6yV6Ac_-cYkG5h-99" value="&lt;b&gt;&lt;u&gt;&lt;font style=&quot;font-size: 11px;&quot;&gt;ISBN_WISHLIST&lt;/font&gt;&lt;/u&gt;&lt;/b&gt;" style="whiteSpace=wrap;html=1;align=center;" vertex="1" parent="1">
          <mxGeometry x="120" y="970" width="100" height="30" as="geometry" />
        </mxCell>
        <mxCell id="e0Iiw-6yV6Ac_-cYkG5h-100" value="&lt;b&gt;UTENTE_WISHLIST_GIORNALE&lt;/b&gt;" style="text;html=1;align=center;verticalAlign=middle;resizable=0;points=[];autosize=1;strokeColor=none;fillColor=none;" vertex="1" parent="1">
          <mxGeometry x="310" y="940" width="210" height="30" as="geometry" />
        </mxCell>
        <mxCell id="e0Iiw-6yV6Ac_-cYkG5h-101" value="&lt;b&gt;&lt;u&gt;&lt;font style=&quot;font-size: 11px;&quot;&gt;ID_UTENTE&amp;nbsp;&lt;/font&gt;&lt;/u&gt;&lt;/b&gt;" style="whiteSpace=wrap;html=1;align=center;" vertex="1" parent="1">
          <mxGeometry x="320" y="970" width="80" height="30" as="geometry" />
        </mxCell>
        <mxCell id="e0Iiw-6yV6Ac_-cYkG5h-102" value="&lt;b&gt;&lt;u&gt;&lt;font style=&quot;font-size: 12px;&quot;&gt;ISSN_&lt;/font&gt;WISHLIST&lt;/u&gt;&lt;/b&gt;" style="whiteSpace=wrap;html=1;align=center;" vertex="1" parent="1">
          <mxGeometry x="400" y="970" width="100" height="30" as="geometry" />
        </mxCell>
        <mxCell id="e0Iiw-6yV6Ac_-cYkG5h-103" value="&lt;b&gt;UTENTE_WISHLIST_MULTIMEDIALE&lt;/b&gt;" style="text;html=1;align=center;verticalAlign=middle;resizable=0;points=[];autosize=1;strokeColor=none;fillColor=none;" vertex="1" parent="1">
          <mxGeometry x="595" y="940" width="230" height="30" as="geometry" />
        </mxCell>
        <mxCell id="e0Iiw-6yV6Ac_-cYkG5h-104" value="&lt;b&gt;&lt;u&gt;&lt;font style=&quot;font-size: 11px;&quot;&gt;ID_UTENTE&amp;nbsp;&lt;/font&gt;&lt;/u&gt;&lt;/b&gt;" style="whiteSpace=wrap;html=1;align=center;" vertex="1" parent="1">
          <mxGeometry x="595" y="970" width="80" height="30" as="geometry" />
        </mxCell>
        <mxCell id="e0Iiw-6yV6Ac_-cYkG5h-105" value="&lt;b&gt;&lt;u&gt;&lt;font style=&quot;font-size: 12px;&quot;&gt;ID_MEDIA_&lt;/font&gt;WISHLIST&lt;/u&gt;&lt;/b&gt;" style="whiteSpace=wrap;html=1;align=center;" vertex="1" parent="1">
          <mxGeometry x="675" y="970" width="140" height="30" as="geometry" />
        </mxCell>
        <mxCell id="e0Iiw-6yV6Ac_-cYkG5h-106" value="&lt;b&gt;&lt;u&gt;&lt;font style=&quot;font-size: 11px;&quot;&gt;ID_UTENTE&amp;nbsp;&lt;/font&gt;&lt;/u&gt;&lt;/b&gt;" style="whiteSpace=wrap;html=1;align=center;" vertex="1" parent="1">
          <mxGeometry x="40" y="1050" width="80" height="30" as="geometry" />
        </mxCell>
        <mxCell id="e0Iiw-6yV6Ac_-cYkG5h-108" value="&lt;b&gt;UTENTE_PRENDE_PRESTITO_COPIA_LIBRO&lt;/b&gt;" style="text;html=1;align=center;verticalAlign=middle;resizable=0;points=[];autosize=1;strokeColor=none;fillColor=none;" vertex="1" parent="1">
          <mxGeometry x="30" y="1020" width="280" height="30" as="geometry" />
        </mxCell>
        <mxCell id="e0Iiw-6yV6Ac_-cYkG5h-109" value="&lt;b&gt;&lt;u&gt;&lt;font style=&quot;font-size: 11px;&quot;&gt;ISBN_PRESTITO&lt;/font&gt;&lt;/u&gt;&lt;/b&gt;" style="whiteSpace=wrap;html=1;align=center;" vertex="1" parent="1">
          <mxGeometry x="120" y="1050" width="100" height="30" as="geometry" />
        </mxCell>
        <mxCell id="e0Iiw-6yV6Ac_-cYkG5h-110" value="&lt;b&gt;&lt;u&gt;&lt;font style=&quot;font-size: 11px;&quot;&gt;INVENTARIO_PRESTITO&lt;/font&gt;&lt;/u&gt;&lt;/b&gt;" style="whiteSpace=wrap;html=1;align=center;" vertex="1" parent="1">
          <mxGeometry x="220" y="1050" width="140" height="30" as="geometry" />
        </mxCell>
        <mxCell id="e0Iiw-6yV6Ac_-cYkG5h-111" value="&lt;b&gt;&lt;u&gt;COMUNE_PRESTITO&lt;/u&gt;&lt;/b&gt;" style="whiteSpace=wrap;html=1;align=center;" vertex="1" parent="1">
          <mxGeometry x="360" y="1050" width="130" height="30" as="geometry" />
        </mxCell>
        <mxCell id="e0Iiw-6yV6Ac_-cYkG5h-114" value="&lt;b style=&quot;font-size: 11px;&quot;&gt;DATA_INIZIO_PRESTITO&lt;/b&gt;" style="whiteSpace=wrap;html=1;align=center;" vertex="1" parent="1">
          <mxGeometry x="490" y="1050" width="140" height="30" as="geometry" />
        </mxCell>
        <mxCell id="e0Iiw-6yV6Ac_-cYkG5h-115" value="&lt;b style=&quot;font-size: 11px;&quot;&gt;DATA_SCADENZA_PRESTITO&lt;/b&gt;" style="whiteSpace=wrap;html=1;align=center;" vertex="1" parent="1">
          <mxGeometry x="630" y="1050" width="170" height="30" as="geometry" />
        </mxCell>
        <mxCell id="e0Iiw-6yV6Ac_-cYkG5h-116" value="&lt;b style=&quot;font-size: 11px;&quot;&gt;DATA_RESTITUZIONE&lt;/b&gt;" style="whiteSpace=wrap;html=1;align=center;" vertex="1" parent="1">
          <mxGeometry x="800" y="1050" width="130" height="30" as="geometry" />
        </mxCell>
        <mxCell id="e0Iiw-6yV6Ac_-cYkG5h-117" value="&lt;b&gt;&lt;u&gt;&lt;font style=&quot;font-size: 11px;&quot;&gt;ID_UTENTE&amp;nbsp;&lt;/font&gt;&lt;/u&gt;&lt;/b&gt;" style="whiteSpace=wrap;html=1;align=center;" vertex="1" parent="1">
          <mxGeometry x="40" y="1130" width="80" height="30" as="geometry" />
        </mxCell>
        <mxCell id="e0Iiw-6yV6Ac_-cYkG5h-118" value="&lt;b&gt;UTENTE_PRENDE_PRESTITO_COPIA_GIORNALE&lt;/b&gt;" style="text;html=1;align=center;verticalAlign=middle;resizable=0;points=[];autosize=1;strokeColor=none;fillColor=none;" vertex="1" parent="1">
          <mxGeometry x="30.5" y="1100" width="310" height="30" as="geometry" />
        </mxCell>
        <mxCell id="e0Iiw-6yV6Ac_-cYkG5h-119" value="&lt;b&gt;&lt;u&gt;&lt;font style=&quot;font-size: 11px;&quot;&gt;ISSN_PRESTITO&lt;/font&gt;&lt;/u&gt;&lt;/b&gt;" style="whiteSpace=wrap;html=1;align=center;" vertex="1" parent="1">
          <mxGeometry x="120" y="1130" width="100" height="30" as="geometry" />
        </mxCell>
        <mxCell id="e0Iiw-6yV6Ac_-cYkG5h-120" value="&lt;b&gt;&lt;u&gt;&lt;font style=&quot;font-size: 11px;&quot;&gt;INVENTARIO_PRESTITO&lt;/font&gt;&lt;/u&gt;&lt;/b&gt;" style="whiteSpace=wrap;html=1;align=center;" vertex="1" parent="1">
          <mxGeometry x="220" y="1130" width="140" height="30" as="geometry" />
        </mxCell>
        <mxCell id="e0Iiw-6yV6Ac_-cYkG5h-121" value="&lt;b&gt;&lt;u&gt;COMUNE_PRESTITO&lt;/u&gt;&lt;/b&gt;" style="whiteSpace=wrap;html=1;align=center;" vertex="1" parent="1">
          <mxGeometry x="360" y="1130" width="130" height="30" as="geometry" />
        </mxCell>
        <mxCell id="e0Iiw-6yV6Ac_-cYkG5h-122" value="&lt;b style=&quot;font-size: 11px;&quot;&gt;DATA_INIZIO_PRESTITO&lt;/b&gt;" style="whiteSpace=wrap;html=1;align=center;" vertex="1" parent="1">
          <mxGeometry x="490" y="1130" width="140" height="30" as="geometry" />
        </mxCell>
        <mxCell id="e0Iiw-6yV6Ac_-cYkG5h-123" value="&lt;b style=&quot;font-size: 11px;&quot;&gt;DATA_SCADENZA_PRESTITO&lt;/b&gt;" style="whiteSpace=wrap;html=1;align=center;" vertex="1" parent="1">
          <mxGeometry x="630" y="1130" width="170" height="30" as="geometry" />
        </mxCell>
        <mxCell id="e0Iiw-6yV6Ac_-cYkG5h-124" value="&lt;b style=&quot;font-size: 11px;&quot;&gt;DATA_RESTITUZIONE&lt;/b&gt;" style="whiteSpace=wrap;html=1;align=center;" vertex="1" parent="1">
          <mxGeometry x="800" y="1130" width="130" height="30" as="geometry" />
        </mxCell>
        <mxCell id="e0Iiw-6yV6Ac_-cYkG5h-125" value="&lt;b&gt;&lt;u&gt;&lt;font style=&quot;font-size: 11px;&quot;&gt;ID_UTENTE&amp;nbsp;&lt;/font&gt;&lt;/u&gt;&lt;/b&gt;" style="whiteSpace=wrap;html=1;align=center;" vertex="1" parent="1">
          <mxGeometry x="40" y="1211" width="80" height="30" as="geometry" />
        </mxCell>
        <mxCell id="e0Iiw-6yV6Ac_-cYkG5h-126" value="&lt;b&gt;UTENTE_PRENDE_PRESTITO_COPIA_MULTIMEDIA&lt;/b&gt;" style="text;html=1;align=center;verticalAlign=middle;resizable=0;points=[];autosize=1;strokeColor=none;fillColor=none;" vertex="1" parent="1">
          <mxGeometry x="30.5" y="1181" width="320" height="30" as="geometry" />
        </mxCell>
        <mxCell id="e0Iiw-6yV6Ac_-cYkG5h-127" value="&lt;b&gt;&lt;u&gt;&lt;font style=&quot;font-size: 11px;&quot;&gt;ID_MEDIA_PRESTITO&lt;/font&gt;&lt;/u&gt;&lt;/b&gt;" style="whiteSpace=wrap;html=1;align=center;" vertex="1" parent="1">
          <mxGeometry x="120" y="1211" width="120" height="30" as="geometry" />
        </mxCell>
        <mxCell id="e0Iiw-6yV6Ac_-cYkG5h-128" value="&lt;b&gt;&lt;u&gt;&lt;font style=&quot;font-size: 11px;&quot;&gt;INVENTARIO_PRESTITO&lt;/font&gt;&lt;/u&gt;&lt;/b&gt;" style="whiteSpace=wrap;html=1;align=center;" vertex="1" parent="1">
          <mxGeometry x="240" y="1211" width="140" height="30" as="geometry" />
        </mxCell>
        <mxCell id="e0Iiw-6yV6Ac_-cYkG5h-129" value="&lt;b&gt;&lt;u&gt;COMUNE_PRESTITO&lt;/u&gt;&lt;/b&gt;" style="whiteSpace=wrap;html=1;align=center;" vertex="1" parent="1">
          <mxGeometry x="380" y="1211" width="130" height="30" as="geometry" />
        </mxCell>
        <mxCell id="e0Iiw-6yV6Ac_-cYkG5h-130" value="&lt;b style=&quot;font-size: 11px;&quot;&gt;DATA_INIZIO_PRESTITO&lt;/b&gt;" style="whiteSpace=wrap;html=1;align=center;" vertex="1" parent="1">
          <mxGeometry x="510" y="1211" width="140" height="30" as="geometry" />
        </mxCell>
        <mxCell id="e0Iiw-6yV6Ac_-cYkG5h-131" value="&lt;b style=&quot;font-size: 11px;&quot;&gt;DATA_SCADENZA_PRESTITO&lt;/b&gt;" style="whiteSpace=wrap;html=1;align=center;" vertex="1" parent="1">
          <mxGeometry x="650" y="1211" width="170" height="30" as="geometry" />
        </mxCell>
        <mxCell id="e0Iiw-6yV6Ac_-cYkG5h-132" value="&lt;b style=&quot;font-size: 11px;&quot;&gt;DATA_RESTITUZIONE&lt;/b&gt;" style="whiteSpace=wrap;html=1;align=center;" vertex="1" parent="1">
          <mxGeometry x="820" y="1211" width="130" height="30" as="geometry" />
        </mxCell>
        <mxCell id="e0Iiw-6yV6Ac_-cYkG5h-133" value="&lt;b&gt;VIENE_REGISTRATO_A&lt;/b&gt;" style="text;html=1;align=center;verticalAlign=middle;resizable=0;points=[];autosize=1;strokeColor=none;fillColor=none;" vertex="1" parent="1">
          <mxGeometry x="30" y="1260" width="160" height="30" as="geometry" />
        </mxCell>
        <mxCell id="e0Iiw-6yV6Ac_-cYkG5h-134" value="&lt;b&gt;&lt;u&gt;&lt;font style=&quot;font-size: 11px;&quot;&gt;ID_UTENTE_REGISTRATO&lt;/font&gt;&lt;/u&gt;&lt;/b&gt;" style="whiteSpace=wrap;html=1;align=center;" vertex="1" parent="1">
          <mxGeometry x="40" y="1290" width="150" height="30" as="geometry" />
        </mxCell>
        <mxCell id="e0Iiw-6yV6Ac_-cYkG5h-135" value="&lt;b&gt;&lt;font style=&quot;font-size: 11px;&quot;&gt;ID_BIBLIOTECARIO_REGISTRA&lt;/font&gt;&lt;/b&gt;" style="whiteSpace=wrap;html=1;align=center;" vertex="1" parent="1">
          <mxGeometry x="190" y="1290" width="180" height="30" as="geometry" />
        </mxCell>
        <mxCell id="e0Iiw-6yV6Ac_-cYkG5h-136" value="&lt;b&gt;&lt;font style=&quot;font-size: 11px;&quot;&gt;ID_BIBLIOTECA&lt;/font&gt;&lt;/b&gt;" style="whiteSpace=wrap;html=1;align=center;" vertex="1" parent="1">
          <mxGeometry x="370" y="1290" width="110" height="30" as="geometry" />
        </mxCell>
        <mxCell id="e0Iiw-6yV6Ac_-cYkG5h-137" value="&lt;b&gt;ORGANIZZA&lt;/b&gt;" style="text;html=1;align=center;verticalAlign=middle;resizable=0;points=[];autosize=1;strokeColor=none;fillColor=none;" vertex="1" parent="1">
          <mxGeometry x="594.5" y="1260" width="90" height="30" as="geometry" />
        </mxCell>
        <mxCell id="e0Iiw-6yV6Ac_-cYkG5h-138" value="&lt;span style=&quot;font-size: 11px;&quot;&gt;&lt;b&gt;&lt;u&gt;ID_EVENTO_ORGANIZZATO&lt;/u&gt;&lt;/b&gt;&lt;/span&gt;" style="whiteSpace=wrap;html=1;align=center;" vertex="1" parent="1">
          <mxGeometry x="600" y="1290" width="160" height="30" as="geometry" />
        </mxCell>
        <mxCell id="e0Iiw-6yV6Ac_-cYkG5h-139" value="&lt;b&gt;&lt;font style=&quot;font-size: 11px;&quot;&gt;ID_BIBLIOTECARIO_ORGANIZZATORE&lt;/font&gt;&lt;/b&gt;" style="whiteSpace=wrap;html=1;align=center;" vertex="1" parent="1">
          <mxGeometry x="760" y="1290" width="210" height="30" as="geometry" />
        </mxCell>
        <mxCell id="e0Iiw-6yV6Ac_-cYkG5h-140" value="&lt;b&gt;&lt;font style=&quot;font-size: 11px;&quot;&gt;ID_BIBLIOTECA&lt;/font&gt;&lt;/b&gt;" style="whiteSpace=wrap;html=1;align=center;" vertex="1" parent="1">
          <mxGeometry x="970" y="1290" width="110" height="30" as="geometry" />
        </mxCell>
        <mxCell id="e0Iiw-6yV6Ac_-cYkG5h-144" style="edgeStyle=orthogonalEdgeStyle;rounded=0;orthogonalLoop=1;jettySize=auto;html=1;exitX=0.5;exitY=1;exitDx=0;exitDy=0;entryX=0.97;entryY=0.947;entryDx=0;entryDy=0;entryPerimeter=0;curved=1;" edge="1" parent="1" source="e0Iiw-6yV6Ac_-cYkG5h-16" target="e0Iiw-6yV6Ac_-cYkG5h-25">
          <mxGeometry relative="1" as="geometry">
            <Array as="points">
              <mxPoint x="235" y="220" />
              <mxPoint x="127" y="220" />
            </Array>
          </mxGeometry>
        </mxCell>
        <mxCell id="e0Iiw-6yV6Ac_-cYkG5h-145" style="edgeStyle=orthogonalEdgeStyle;rounded=0;orthogonalLoop=1;jettySize=auto;html=1;exitX=0.75;exitY=0;exitDx=0;exitDy=0;entryX=0.896;entryY=0.987;entryDx=0;entryDy=0;entryPerimeter=0;curved=1;" edge="1" parent="1" source="e0Iiw-6yV6Ac_-cYkG5h-15" target="e0Iiw-6yV6Ac_-cYkG5h-1">
          <mxGeometry relative="1" as="geometry">
            <Array as="points">
              <mxPoint x="150" y="170" />
              <mxPoint x="150" y="145" />
              <mxPoint x="121" y="145" />
            </Array>
          </mxGeometry>
        </mxCell>
        <mxCell id="e0Iiw-6yV6Ac_-cYkG5h-165" style="edgeStyle=orthogonalEdgeStyle;rounded=0;orthogonalLoop=1;jettySize=auto;html=1;exitX=0.25;exitY=0;exitDx=0;exitDy=0;entryX=0.408;entryY=1.147;entryDx=0;entryDy=0;entryPerimeter=0;curved=1;" edge="1" parent="1" source="e0Iiw-6yV6Ac_-cYkG5h-65" target="e0Iiw-6yV6Ac_-cYkG5h-15">
          <mxGeometry relative="1" as="geometry">
            <Array as="points">
              <mxPoint x="586" y="230" />
              <mxPoint x="89" y="230" />
            </Array>
          </mxGeometry>
        </mxCell>
        <mxCell id="e0Iiw-6yV6Ac_-cYkG5h-168" style="edgeStyle=orthogonalEdgeStyle;rounded=0;orthogonalLoop=1;jettySize=auto;html=1;exitX=0.75;exitY=0;exitDx=0;exitDy=0;entryX=0.562;entryY=1.12;entryDx=0;entryDy=0;entryPerimeter=0;curved=1;" edge="1" parent="1" source="e0Iiw-6yV6Ac_-cYkG5h-73" target="e0Iiw-6yV6Ac_-cYkG5h-15">
          <mxGeometry relative="1" as="geometry">
            <Array as="points">
              <mxPoint x="455" y="470" />
              <mxPoint x="690" y="450" />
              <mxPoint x="740" y="470" />
              <mxPoint x="740" y="240" />
              <mxPoint x="107" y="240" />
            </Array>
          </mxGeometry>
        </mxCell>
        <mxCell id="e0Iiw-6yV6Ac_-cYkG5h-170" style="edgeStyle=orthogonalEdgeStyle;rounded=0;orthogonalLoop=1;jettySize=auto;html=1;exitX=0.5;exitY=0;exitDx=0;exitDy=0;entryX=0.682;entryY=0.987;entryDx=0;entryDy=0;entryPerimeter=0;curved=1;" edge="1" parent="1" source="e0Iiw-6yV6Ac_-cYkG5h-75" target="e0Iiw-6yV6Ac_-cYkG5h-18">
          <mxGeometry relative="1" as="geometry">
            <Array as="points">
              <mxPoint x="765" y="320" />
              <mxPoint x="108" y="320" />
            </Array>
          </mxGeometry>
        </mxCell>
        <mxCell id="e0Iiw-6yV6Ac_-cYkG5h-180" style="edgeStyle=orthogonalEdgeStyle;rounded=0;orthogonalLoop=1;jettySize=auto;html=1;exitX=0.75;exitY=0;exitDx=0;exitDy=0;entryX=0.882;entryY=0.933;entryDx=0;entryDy=0;entryPerimeter=0;curved=1;" edge="1" parent="1" source="e0Iiw-6yV6Ac_-cYkG5h-89" target="e0Iiw-6yV6Ac_-cYkG5h-15">
          <mxGeometry relative="1" as="geometry">
            <Array as="points">
              <mxPoint x="495" y="620" />
              <mxPoint x="970" y="620" />
              <mxPoint x="970" y="210" />
              <mxPoint x="146" y="210" />
            </Array>
          </mxGeometry>
        </mxCell>
        <mxCell id="e0Iiw-6yV6Ac_-cYkG5h-181" style="edgeStyle=orthogonalEdgeStyle;rounded=0;orthogonalLoop=1;jettySize=auto;html=1;exitX=0.75;exitY=0;exitDx=0;exitDy=0;entryX=0.834;entryY=0.96;entryDx=0;entryDy=0;entryPerimeter=0;curved=1;" edge="1" parent="1" source="e0Iiw-6yV6Ac_-cYkG5h-90" target="e0Iiw-6yV6Ac_-cYkG5h-18">
          <mxGeometry relative="1" as="geometry">
            <Array as="points">
              <mxPoint x="990" y="649" />
              <mxPoint x="990" y="320" />
              <mxPoint x="123" y="320" />
            </Array>
          </mxGeometry>
        </mxCell>
        <mxCell id="e0Iiw-6yV6Ac_-cYkG5h-182" style="edgeStyle=orthogonalEdgeStyle;rounded=0;orthogonalLoop=1;jettySize=auto;html=1;exitX=1;exitY=0;exitDx=0;exitDy=0;entryX=0.898;entryY=1.04;entryDx=0;entryDy=0;entryPerimeter=0;curved=1;" edge="1" parent="1" source="e0Iiw-6yV6Ac_-cYkG5h-91" target="e0Iiw-6yV6Ac_-cYkG5h-18">
          <mxGeometry relative="1" as="geometry">
            <Array as="points">
              <mxPoint x="900" y="300" />
              <mxPoint x="130" y="300" />
            </Array>
          </mxGeometry>
        </mxCell>
      </root>
    </mxGraphModel>
  </diagram>
</mxfile>
